<svg id="Layer_1" data-name="Layer 1" xmlns="http://www.w3.org/2000/svg" viewBox="0 0 1086.74 1086.74"><title>Artboard 2qiblah</title><rect width="1086.74" height="1086.74"/><path d="M968,378.19l-11.9,39.89a22,22,0,0,1-12.15,14.31l-1.46.66S251.54,766.36,216.84,777.16s-46-16.71-46-16.71l-30.37-62a13.45,13.45,0,0,1-1.08-3.12L127.59,650" style="fill:#fff;stroke:#000;stroke-miterlimit:10;stroke-width:1.5px"/><path d="M917.35,315.87c-9-7.79-21.25-11.61-32.7-6.43l-736,320.16a28.7,28.7,0,0,0-14.31,38L163.8,728c6.54,14.44,24.69,23.15,39.13,16.61L953.8,392.32c12.71-5.64,16.8-14,13-25.57a19.68,19.68,0,0,0-5.52-8.57Z" style="fill:#fff;stroke:#000;stroke-miterlimit:10;stroke-width:1.5px"/><path d="M434.27,561.12l-158.4,71.22a5.72,5.72,0,0,0-2.65,7.64l5.49,8.8a5.72,5.72,0,0,0,7.64,2.65l158.39-72.37a5.72,5.72,0,0,0,2.65-7.64l-5.47-7.65A5.72,5.72,0,0,0,434.27,561.12Z" style="fill:#fff;stroke:#000;stroke-miterlimit:10;stroke-width:1.5px"/><path d="M842.7,372,717.19,429c-2.26,1.1-3,4.29-1.61,7.13l4.67,5.62c.38.45.71.94,1,1.43a12.52,12.52,0,0,0,1,1.27c1.93,2.1,4.17,3.59,6.27,2.57l126.55-59.25c2.26-1.1,3-3.14,1.62-6L850.43,374A6.43,6.43,0,0,0,842.7,372Z" style="fill:#fff;stroke:#000;stroke-miterlimit:10;stroke-width:1.5px"/><polygon points="547.68 518.41 563.51 469.24 623.35 483.63 611.17 532.24 547.68 518.41" style="fill:#fff;stroke:#000;stroke-miterlimit:10;stroke-width:1.5px"/><polygon points="566.45 509.66 574.42 484.87 604.58 492.13 598.44 516.63 566.45 509.66" style="fill:#fff;stroke:#000;stroke-miterlimit:10;stroke-width:1.5px"/><path d="M919.1,386l1.58-.78,1.74,2.42-9,4.45-1.54-2.55a4.57,4.57,0,0,1-.36-4.34,2.59,2.59,0,0,1,.82-1,3.2,3.2,0,0,1,.65-.39l1.49-.68a2.49,2.49,0,0,1,3.06.74l1.5,2.16m-8.44-4.62a.91.91,0,0,1,.13.81,1.1,1.1,0,0,1-.61.63,1.34,1.34,0,0,1-.94.12,1.14,1.14,0,0,1-.71-.53.91.91,0,0,1-.11-.8A1.1,1.1,0,0,1,909,381a1.34,1.34,0,0,1,.92-.12A1.13,1.13,0,0,1,910.63,381.42ZM917.1,387l-.86-1.28a1.05,1.05,0,0,0-1.38-.26h0a1.89,1.89,0,0,0-1,1.2,1.79,1.79,0,0,0,.19,1.55l.16.23Zm-2.86-7.33a.9.9,0,0,1,.16.79,1,1,0,0,1-.6.63,1.37,1.37,0,0,1-.94.12,1.18,1.18,0,0,1-.74-.52.87.87,0,0,1-.13-.78,1.06,1.06,0,0,1,.59-.61,1.37,1.37,0,0,1,.93-.12A1.18,1.18,0,0,1,914.24,379.67Z"/><path d="M928.11,384.83l-8.92,4.43L919.1,386l3.37-1.66-6-8a1.37,1.37,0,0,1-.2-1.43l.85-1.38,7.53,9.71,1.55-.77Z"/><path d="M934.88,381.47l-9.94,4.94-.24-3.15,4.44-2.19a7,7,0,0,1-1.49-2.18,8.65,8.65,0,0,1,.77-2.23l2.9,3.32,1.54-.76ZM934.6,386a1.18,1.18,0,0,1,.34.94,1,1,0,0,1-.59.73,1.54,1.54,0,0,1-1.09.12,1.79,1.79,0,0,1-1-.63,1.15,1.15,0,0,1-.31-.93,1,1,0,0,1,.58-.7,1.55,1.55,0,0,1,1.08-.12A1.78,1.78,0,0,1,934.6,386Z"/><path d="M941.89,375.9a3.47,3.47,0,0,1,.69.91q.35.66-.09.88L931.74,383l-.41-3,7.64-3.77-1.3-1.31L935.52,376a2.74,2.74,0,0,1-2,.11,3.52,3.52,0,0,1-1.71-1,2.18,2.18,0,0,1-.69-1.64q.06-.83,1.22-1.39l.72-.32,1.9-.9a1.88,1.88,0,0,1,2,.33Zm-11.83-6.08a.77.77,0,0,1,.26.69.85.85,0,0,1-.52.57,1.5,1.5,0,0,1-.93.13,1.4,1.4,0,0,1-.81-.43.76.76,0,0,1-.24-.69.84.84,0,0,1,.51-.56,1.52,1.52,0,0,1,.93-.14A1.41,1.41,0,0,1,930.06,369.82Zm6.24,3.71-1-1-1.28.62q-.7.34-.17.88a.88.88,0,0,0,1.12.15Zm-2.83-5.35a.76.76,0,0,1,.28.68.81.81,0,0,1-.51.57,1.53,1.53,0,0,1-.94.13,1.46,1.46,0,0,1-.83-.42.75.75,0,0,1-.26-.68.8.8,0,0,1,.5-.55,1.55,1.55,0,0,1,.93-.14A1.48,1.48,0,0,1,933.47,368.17Z"/><path d="M201.94,725.6l-2.54,1.24-2.64-5.31,0,0a3.31,3.31,0,0,1-1.85,2.2c-2.6,1.26-5.14-.28-6.21-2.53a4.51,4.51,0,0,1,1.92-6.18,3.53,3.53,0,0,1,2.84-.13l0,0-.36-.73,2.45-1.16Zm-6.6-7.55a2.45,2.45,0,0,0-3.17-1.28,2.41,2.41,0,0,0-1,3.26,2.47,2.47,0,0,0,3.2,1.33A2.43,2.43,0,0,0,195.34,718.05Z"/><path d="M198.36,707.6a1.45,1.45,0,0,1-.75,2,1.59,1.59,0,0,1-2.1-.62,1.46,1.46,0,0,1,.76-2A1.6,1.6,0,0,1,198.36,707.6ZM204,719l-2.49,1.2-4.15-8.06,2.43-1.16Z"/><path d="M198.72,704.53l2.37-1.12,3.38,6.22a3.35,3.35,0,0,1,1.81-2.07,4.84,4.84,0,0,1,6.14,2.24c1.22,2.15,1,5-1.55,6.19a3.38,3.38,0,0,1-2.86.09l0,0,.41.76-2.47,1.2ZM210,711a2.56,2.56,0,0,0-3.22-1.22A2.24,2.24,0,0,0,206,713a2.58,2.58,0,0,0,3.25,1.27A2.26,2.26,0,0,0,210,711Z"/><path d="M218.27,712.08l-2.43,1.18L208.25,700l2.34-1.1Z"/><path d="M228,707.39l-2.36,1.14-.44-.71,0,0a2.94,2.94,0,0,1-1.69,2.08c-2.49,1.2-5.15-.22-6.39-2.32s-1-4.69,1.41-5.82a3.85,3.85,0,0,1,2.88-.16l-.43-.7,2.31-1.1Zm-4.51-2.84a2.69,2.69,0,0,0-3.28-1.16,2.1,2.1,0,0,0-.68,3.07,2.69,2.69,0,0,0,3.29,1.22A2.13,2.13,0,0,0,223.46,704.55Z"/><path d="M223.86,692.69l3.76,5.82,0,0a2.51,2.51,0,0,1,1.57-1.86c2.18-1,3.72,0,4.86,1.74l3.06,4.57-2.36,1.14-2.63-4c-.59-.89-1.29-2.05-2.6-1.43s-.49,2.07.09,3l2.43,3.76-2.38,1.15-8.12-12.79Z"/><rect x="118.59" y="646.14" width="13.22" height="16.35"/></svg>